<svg width="800" height="520" viewBox="0 0 800 520" fill="none" xmlns="http://www.w3.org/2000/svg">
  <rect width="800" height="520" rx="36" fill="#EAF3FF"/>
  <rect x="24" y="24" width="752" height="472" rx="28" fill="#FFFFFF"/>
  <rect x="24" y="24" width="752" height="472" rx="28" stroke="#D9E6F5" stroke-width="2"/>
  <rect x="48" y="54" width="140" height="20" rx="10" fill="#0F172A"/>
  <rect x="48" y="92" width="170" height="14" rx="7" fill="#C8D8EC"/>
  <rect x="48" y="138" width="176" height="322" rx="22" fill="#0F172A"/>
  <rect x="72" y="174" width="96" height="12" rx="6" fill="#FFFFFF"/>
  <rect x="72" y="202" width="126" height="12" rx="6" fill="#334155"/>
  <rect x="72" y="248" width="126" height="44" rx="14" fill="#2563EB"/>
  <rect x="72" y="316" width="126" height="44" rx="14" fill="#172554"/>
  <rect x="72" y="384" width="126" height="44" rx="14" fill="#172554"/>
  <rect x="248" y="138" width="244" height="110" rx="24" fill="#F5F9FF"/>
  <rect x="272" y="166" width="102" height="12" rx="6" fill="#0F172A"/>
  <rect x="272" y="192" width="126" height="44" rx="16" fill="#E0EDFF"/>
  <rect x="414" y="192" width="54" height="44" rx="16" fill="#0EA5E9"/>
  <rect x="514" y="138" width="238" height="110" rx="24" fill="#0F172A"/>
  <rect x="538" y="166" width="108" height="12" rx="6" fill="#FFFFFF"/>
  <rect x="538" y="192" width="188" height="10" rx="5" fill="#334155"/>
  <rect x="538" y="218" width="146" height="10" rx="5" fill="#334155"/>
  <rect x="248" y="272" width="328" height="188" rx="24" fill="#FFFFFF"/>
  <rect x="248" y="272" width="328" height="188" rx="24" stroke="#D9E6F5" stroke-width="2"/>
  <rect x="272" y="298" width="88" height="12" rx="6" fill="#0F172A"/>
  <rect x="272" y="330" width="280" height="92" rx="18" fill="#EFF6FF"/>
  <path d="M300 390C330 358 360 374 394 342C428 310 450 332 474 312C498 292 520 306 540 284" stroke="#2563EB" stroke-width="8" stroke-linecap="round"/>
  <circle cx="394" cy="342" r="12" fill="#0EA5E9"/>
  <rect x="598" y="272" width="154" height="188" rx="24" fill="#F8FBFF"/>
  <rect x="622" y="300" width="88" height="12" rx="6" fill="#0F172A"/>
  <rect x="622" y="334" width="102" height="46" rx="16" fill="#DBEAFE"/>
  <rect x="622" y="394" width="102" height="46" rx="16" fill="#D1FAE5"/>
  <text x="48" y="480" fill="#64748B" font-family="Arial, sans-serif" font-size="18">Dashboard maquette</text>
</svg>
