<svg width="800" height="520" viewBox="0 0 800 520" fill="none" xmlns="http://www.w3.org/2000/svg">
  <rect width="800" height="520" rx="36" fill="#EEF5FF"/>
  <rect x="24" y="24" width="752" height="472" rx="28" fill="#0F172A"/>
  <rect x="24" y="24" width="752" height="472" rx="28" stroke="#1E293B" stroke-width="2"/>
  <rect x="48" y="48" width="704" height="54" rx="18" fill="#162235"/>
  <rect x="74" y="68" width="126" height="14" rx="7" fill="#FFFFFF"/>
  <rect x="650" y="62" width="76" height="26" rx="13" fill="#2563EB"/>
  <rect x="48" y="124" width="82" height="348" rx="22" fill="#162235"/>
  <rect x="70" y="154" width="38" height="38" rx="12" fill="#2563EB"/>
  <rect x="70" y="214" width="38" height="38" rx="12" fill="#1E293B"/>
  <rect x="70" y="274" width="38" height="38" rx="12" fill="#1E293B"/>
  <rect x="70" y="334" width="38" height="38" rx="12" fill="#1E293B"/>
  <rect x="154" y="124" width="458" height="348" rx="24" fill="#E5EEF9"/>
  <rect x="184" y="154" width="398" height="288" rx="18" fill="#FFFFFF"/>
  <rect x="218" y="190" width="184" height="82" rx="18" fill="#E0EDFF"/>
  <rect x="432" y="190" width="116" height="82" rx="18" fill="#DBEAFE"/>
  <circle cx="292" cy="350" r="54" fill="#0EA5E9"/>
  <rect x="392" y="314" width="130" height="72" rx="18" fill="#2563EB"/>
  <path d="M224 410H544" stroke="#CBD5E1" stroke-width="10" stroke-linecap="round"/>
  <rect x="636" y="124" width="116" height="348" rx="24" fill="#162235"/>
  <rect x="658" y="156" width="64" height="12" rx="6" fill="#FFFFFF"/>
  <rect x="658" y="186" width="72" height="48" rx="16" fill="#1E293B"/>
  <rect x="658" y="252" width="72" height="48" rx="16" fill="#2563EB"/>
  <rect x="658" y="318" width="72" height="48" rx="16" fill="#1E293B"/>
  <rect x="658" y="384" width="72" height="48" rx="16" fill="#1E293B"/>
  <text x="48" y="480" fill="#A5B4C7" font-family="Arial, sans-serif" font-size="18">Editor maquette</text>
</svg>
